<?xml version="1.0" encoding="UTF-8"?>
<svg id="Layer_2" data-name="Layer 2" xmlns="http://www.w3.org/2000/svg" viewBox="0 0 1000 705">
  <defs>
    <style>
      .cls-1 {
        fill: #9405ff;
      }
    </style>
  </defs>
  <g id="Layer_1-2" data-name="Layer 1">
    <g>
      <rect width="1000" height="705"/>
      <path class="cls-1" d="m439.17,309.24c-3.05-1.03-4.88-1.56-6.59-2.25-21.1-8.51-42.2-17.02-63.27-25.58-9.84-3.99-19.59-8.1-29.43-12.09-7.45-3.02-15.37-3.91-23.48-1.57-11.84,3.41-15.99,10.32-16.01,18.73-.07,35.47-.01,70.95,0,106.42,0,5.54-.07,11.07.06,16.61.23,9.72,6.37,17.07,18.28,21.99,5.51,2.28,11.15,4.42,16.69,6.66,36.35,14.74,72.68,29.5,109.04,44.23,1.17.47,2.59.62,4.67,1.1v-31.94c-14.46-5.84-28.6-11.53-42.73-17.26-20.44-8.29-40.83-16.62-61.31-24.86-2.76-1.11-3.89-2.52-3.88-4.7.04-32.19.02-64.39.08-96.58,0-1.24.58-2.48,1.05-4.34,2.46.74,4.19,1.14,5.74,1.75,7.98,3.18,15.92,6.42,23.86,9.64,14.01,5.68,28.03,11.34,41.98,17.08,1.59.65,2.79,1.76,4.61,2.95-1.86.91-2.86,1.48-3.95,1.92-14.88,6.06-29.7,12.19-44.73,18.07-3.58,1.4-5.02,3.06-4.99,5.82.1,8.41,0,16.81.03,25.22,0,.97.25,1.94.46,3.48,2.3-.81,3.99-1.32,5.58-1.97,20.79-8.45,41.58-16.91,62.35-25.39,13.22-5.4,26.43-10.8,39.58-16.28,5.8-2.42,8.18-6.27,8.18-10.88.02-26.55.02-53.11-.01-79.66,0-1.89-.27-3.79-.44-5.98-1.51.35-2.52.47-3.35.8-10.64,4.25-21.2,8.59-31.89,12.77-4.09,1.6-5.41,3.78-5.34,7.02.24,11.07.13,22.15.06,33.22-.01,1.66-.51,3.32-.92,5.84Zm28.49,87.92c.57.27,1.14.55,1.7.82.23,1.67.67,3.33.67,5,.04,24.71,0,49.41.05,74.12.02,8.83,6.06,15.39,16.36,18.28,9.1,2.56,17.1.55,24.89-2.68,10.28-4.26,20.52-8.57,30.88-12.75,22.1-8.92,44.3-17.72,66.39-26.66,18.05-7.3,35.92-14.81,54.02-22.05,11.88-4.75,17.95-11.89,17.99-21.32.17-34.24.08-68.48.07-102.72,0-1.16-.24-2.33-.4-3.85-1.84.57-3.06.86-4.16,1.3-9.36,3.75-18.55,7.72-28.1,11.21-6.06,2.21-7.7,5.29-7.65,9.91.28,24.4.14,48.8.14,73.19,0,1.64-.13,3.28-.11,4.92.02,2.85-1.79,4.63-5.43,6.05-14.76,5.76-29.4,11.67-44.01,17.63-23.81,9.7-47.55,19.5-71.37,29.19-2.11.86-4.6,1.26-6.82,1.84-2.52-3.58-2.32-58,.31-61.23,18.29,6.23,35.21,14.32,53.35,21,13.06-5.33,25.93-10.58,39.64-16.18-2.33-1.16-3.63-1.93-5.09-2.51-15.05-6.04-30.16-12.01-45.19-18.07-18.95-7.64-37.83-15.37-56.76-23.04-5.11-2.07-10.46-2.62-15.8-.51-13.08,5.15-26.14,10.34-39.13,15.61-21.32,8.63-42.59,17.32-63.85,26.02-1.54.63-2.88,1.49-4.92,2.57,13.65,5.57,26.54,10.83,39.68,16.19,17.77-7.17,35.22-14.22,52.68-21.27Zm32.77-147.9c0,3.59,0,6.3,0,9.02,0,25.12-.01,50.23.03,75.35,0,1.83.21,3.69.66,5.49,1.33,5.39,7.87,7.36,13.57,9.69,19.01,7.76,38.17,15.33,57.22,23.05,12.87,5.22,25.62,10.57,38.45,15.83,1.43.59,3.03.96,4.77,1.51.44-.86.89-1.32.89-1.78.06-9.43.14-18.86-.03-28.29-.02-1.03-1.18-2.48-2.43-3-10.14-4.22-20.46-8.23-30.67-12.37-6.4-2.59-12.7-5.3-19.85-8.3,1.54-1.23,2.43-2.23,3.68-2.88,1.63-.84,3.56-1.39,5.32-2.11,18.77-7.64,37.54-15.27,56.29-22.93,12.09-4.94,24.22-9.83,36.17-14.93,4.98-2.12,8.49-5.36,10.1-9.34,3.38-8.36-.83-15.91-11.85-20.48-22.08-9.16-44.3-18.14-66.51-27.15-29.4-11.92-58.84-23.8-88.26-35.69-11.57-4.67-23.15-4.81-34.8-.07-20.17,8.2-40.37,16.35-60.54,24.55-21.56,8.76-43.11,17.55-64.62,26.36-1.56.64-2.84,1.62-4.51,2.6.96.77,1.46,1.44,2.25,1.76,10.44,4.29,20.91,8.54,31.39,12.76,3.25,1.31,6.26,1.41,9.77-.1,13.4-5.78,26.91-11.44,40.54-16.95,19.3-7.8,38.79-15.38,58.08-23.2,3.62-1.46,6.51-1.51,10.11-.03,14.34,5.88,28.87,11.53,43.25,17.37,24.59,9.98,49.13,20.02,73.66,30.08,1.78.73,3.27,1.81,5.98,3.34-25.61,10.9-50.69,20.7-76.74,31.29-.48-2.77-.96-4.33-.97-5.88-.07-11.69.08-23.37-.17-35.06-.03-1.57-1.29-3.81-3.02-4.57-9.88-4.34-20.06-8.34-30.17-12.42-1.97-.79-4.04-1.45-7.04-2.51Z"/>
    </g>
  </g>
</svg>